<svg xmlns="http://www.w3.org/2000/svg" width="16.382" height="16.889" viewBox="0 0 16.382 16.889">
  <g id="Page-1" transform="translate(-0.76 -0.75)">
    <g id="Artboard" transform="translate(-369 -279)">
      <g id="transaction" transform="translate(370 280)">
        <path id="Shape" d="M15.892,2.032V1.4A1.579,1.579,0,0,0,14.181,0H1.742A1.579,1.579,0,0,0,.032,1.4l-.021,14.6c-.013.329.521.51.8.269l.914-.746.914.746a.547.547,0,0,0,.589.048l1.607-.875,1.607.875a.555.555,0,0,0,.517,0l1.607-.875,1.607.875a.547.547,0,0,0,.589-.048l.914-.746.914.746c.277.241.809.06.8-.269l.021-4.838q2.507.145,2.488-1.193C15.879,9.07,15.879,5.093,15.892,2.032ZM12.45,15.072,12,14.707a.543.543,0,0,0-.66,0l-.974.8-1.548-.843a.555.555,0,0,0-.517,0L6.7,15.534l-1.607-.875a.555.555,0,0,0-.517,0L3.024,15.5l-.974-.8a.543.543,0,0,0-.66,0l-.448.366L.965,1.4A.718.718,0,0,1,1.742.762H12.658a1.188,1.188,0,0,0-.187.635Zm.954-4.945V1.4a.793.793,0,0,1,1.555,0v8.1c0,.221.055.508-.286.635Zm2.488-.635v0Z" fill="#f37524" stroke="#f37524" stroke-width="0.5"/>
      </g>
    </g>
  </g>
</svg>
