<svg xmlns="http://www.w3.org/2000/svg" width="16.46" height="16.46" viewBox="0 0 16.46 16.46">
  <g id="dashboard" transform="translate(0.2 0.2)">
    <path id="Path_36795" data-name="Path 36795" d="M6.19,9.353H1.171A1.172,1.172,0,0,1,0,8.182V1.171A1.172,1.172,0,0,1,1.171,0H6.19A1.172,1.172,0,0,1,7.361,1.171V8.182A1.172,1.172,0,0,1,6.19,9.353ZM1.171,1A.167.167,0,0,0,1,1.171V8.182a.167.167,0,0,0,.167.167H6.19a.167.167,0,0,0,.167-.167V1.171A.167.167,0,0,0,6.19,1Zm0,0" fill="#818e94" stroke="#818e94" stroke-width="0.4"/>
    <path id="Path_36796" data-name="Path 36796" d="M6.19,222.7H1.171A1.172,1.172,0,0,1,0,221.53V218.5a1.172,1.172,0,0,1,1.171-1.171H6.19A1.172,1.172,0,0,1,7.361,218.5v3.026A1.172,1.172,0,0,1,6.19,222.7Zm-5.019-4.365A.167.167,0,0,0,1,218.5v3.026a.167.167,0,0,0,.167.167H6.19a.167.167,0,0,0,.167-.167V218.5a.167.167,0,0,0-.167-.167Zm0,0" transform="translate(0 -206.64)" fill="#818e94" stroke="#818e94" stroke-width="0.4"/>
    <path id="Path_36797" data-name="Path 36797" d="M283.522,346.686H278.5a1.172,1.172,0,0,1-1.171-1.171V338.5a1.172,1.172,0,0,1,1.171-1.171h5.019a1.172,1.172,0,0,1,1.171,1.171v7.011A1.172,1.172,0,0,1,283.522,346.686Zm-5.019-8.35a.167.167,0,0,0-.167.167v7.011a.167.167,0,0,0,.167.167h5.019a.167.167,0,0,0,.167-.167V338.5a.167.167,0,0,0-.167-.167Zm0,0" transform="translate(-268.633 -330.625)" fill="#818e94" stroke="#818e94" stroke-width="0.4"/>
    <path id="Path_36798" data-name="Path 36798" d="M283.522,5.368H278.5A1.172,1.172,0,0,1,277.332,4.2V1.171A1.172,1.172,0,0,1,278.5,0h5.019a1.172,1.172,0,0,1,1.171,1.171V4.2A1.172,1.172,0,0,1,283.522,5.368ZM278.5,1a.167.167,0,0,0-.167.167V4.2a.167.167,0,0,0,.167.167h5.019a.167.167,0,0,0,.167-.167V1.171A.167.167,0,0,0,283.522,1Zm0,0" transform="translate(-268.633)" fill="#818e94" stroke="#818e94" stroke-width="0.4"/>
  </g>
</svg>
