<svg xmlns="http://www.w3.org/2000/svg" width="16.079" height="17.8" viewBox="0 0 16.079 17.8">
  <g id="Page-1" transform="translate(0.3 0.3)">
    <g id="Artboard" transform="translate(-291 -275)">
      <g id="Group-2" transform="translate(291 275)">
        <path id="Combined-Shape" d="M12.664,7.183a2.5,2.5,0,0,1,.924.167,2.223,2.223,0,0,1,.724.455,2.859,2.859,0,0,1,.5.657,4.017,4.017,0,0,1,.334.758,6.372,6.372,0,0,1,.2.813,7.615,7.615,0,0,1,.1.809c.017.244.026.5.026.756a2.125,2.125,0,0,1-.631,1.608,2.2,2.2,0,0,1-1.409.586l-.217.007H11.984q.016-.2.016-.4,0-.178-.012-.351h1.234a1.53,1.53,0,0,0,1.109-.387,1.388,1.388,0,0,0,.4-1.065c0-.16,0-.319-.011-.474L14.7,10.9a6.876,6.876,0,0,0-.094-.729,5.62,5.62,0,0,0-.175-.717,3.265,3.265,0,0,0-.272-.617,2.114,2.114,0,0,0-.37-.486,1.477,1.477,0,0,0-.482-.3,1.727,1.727,0,0,0-.591-.114c-.026.014-.073.041-.149.09-.154.1-.327.212-.528.34a3.721,3.721,0,0,1-.848.379,3.372,3.372,0,0,1-2.114,0q-.121-.039-.232-.081A3.973,3.973,0,0,0,9.228,8l.086.029a2.623,2.623,0,0,0,1.652,0,2.991,2.991,0,0,0,.675-.3c.2-.125.372-.239.522-.337A.938.938,0,0,1,12.664,7.183ZM10.059,0a2.984,2.984,0,0,1,2.18.9,2.983,2.983,0,0,1,.9,2.18,2.983,2.983,0,0,1-.9,2.18,2.983,2.983,0,0,1-2.18.9A3.313,3.313,0,0,1,9.6,6.134l0,.066a4.653,4.653,0,0,0-.075-.841,2.392,2.392,0,0,0,.533.057,2.229,2.229,0,0,0,1.649-.683,2.229,2.229,0,0,0,.683-1.649,2.229,2.229,0,0,0-.683-1.649,2.332,2.332,0,0,0-3.3,0,2.221,2.221,0,0,0-.643,1.19A4.039,4.039,0,0,0,7.1,2.216,2.976,2.976,0,0,1,7.879.9,2.983,2.983,0,0,1,10.059,0Z" fill="#818e94" stroke="#818e94" stroke-width="0.6"/>
        <g id="user-copy-2" transform="translate(0 3.4)">
          <path id="Shape" d="M5.259,6.166a2.983,2.983,0,0,0,2.18-.9,2.983,2.983,0,0,0,.9-2.18A2.983,2.983,0,0,0,7.439.9,2.984,2.984,0,0,0,5.259,0a2.983,2.983,0,0,0-2.18.9,2.983,2.983,0,0,0-.9,2.18,2.983,2.983,0,0,0,.9,2.18A2.984,2.984,0,0,0,5.259,6.166ZM3.609,1.433A2.228,2.228,0,0,1,5.259.75a2.229,2.229,0,0,1,1.649.683,2.229,2.229,0,0,1,.683,1.649,2.229,2.229,0,0,1-.683,1.649,2.229,2.229,0,0,1-1.649.683,2.229,2.229,0,0,1-1.649-.683,2.228,2.228,0,0,1-.684-1.649A2.229,2.229,0,0,1,3.609,1.433Z" fill="#818e94" stroke="#818e94" stroke-width="0.6"/>
          <path id="Shape-2" data-name="Shape" d="M10.653,10.843a7.615,7.615,0,0,0-.1-.809,6.372,6.372,0,0,0-.2-.813,4.017,4.017,0,0,0-.334-.758,2.859,2.859,0,0,0-.5-.657,2.223,2.223,0,0,0-.724-.455,2.5,2.5,0,0,0-.924-.167.938.938,0,0,0-.5.213c-.15.1-.326.211-.522.337a2.991,2.991,0,0,1-.675.3,2.623,2.623,0,0,1-1.652,0,2.982,2.982,0,0,1-.675-.3c-.194-.124-.37-.237-.522-.337a.937.937,0,0,0-.5-.213,2.5,2.5,0,0,0-.924.167,2.221,2.221,0,0,0-.724.455,2.859,2.859,0,0,0-.5.657,4.024,4.024,0,0,0-.334.758,6.387,6.387,0,0,0-.2.813,7.563,7.563,0,0,0-.1.809c-.017.244-.026.5-.026.756a2.125,2.125,0,0,0,.631,1.608,2.272,2.272,0,0,0,1.627.593H8.421a2.272,2.272,0,0,0,1.627-.593,2.125,2.125,0,0,0,.631-1.608c0-.258-.009-.512-.026-.756ZM9.531,12.663a1.53,1.53,0,0,1-1.109.387H2.258a1.53,1.53,0,0,1-1.109-.387A1.388,1.388,0,0,1,.75,11.6c0-.24.008-.477.024-.7a6.822,6.822,0,0,1,.094-.728,5.634,5.634,0,0,1,.175-.717,3.276,3.276,0,0,1,.272-.617,2.119,2.119,0,0,1,.37-.485,1.474,1.474,0,0,1,.482-.3,1.726,1.726,0,0,1,.591-.114c.026.014.073.041.149.09.154.1.332.215.528.341a3.716,3.716,0,0,0,.848.379,3.372,3.372,0,0,0,2.114,0,3.721,3.721,0,0,0,.848-.379c.2-.129.374-.24.528-.34.076-.049.123-.076.149-.09a1.727,1.727,0,0,1,.591.114,1.477,1.477,0,0,1,.482.3,2.114,2.114,0,0,1,.37.486,3.265,3.265,0,0,1,.272.617,5.62,5.62,0,0,1,.175.717,6.879,6.879,0,0,1,.094.729h0c.016.226.024.463.024.7a1.388,1.388,0,0,1-.4,1.065Z" fill="#818e94" stroke="#818e94" stroke-width="0.6"/>
        </g>
      </g>
    </g>
  </g>
</svg>
